<svg xmlns="http://www.w3.org/2000/svg" width="1400" height="900" viewBox="0 0 1400 900">
<style>
text{font-family:Arial,'Microsoft YaHei',sans-serif;fill:#1f2937} .title{font-size:30px;font-weight:700}.h{font-size:22px;font-weight:700}.t{font-size:18px}.box{fill:#f8fafc;stroke:#334155;stroke-width:2;rx:18;ry:18}.srv{fill:#dbeafe}.net{fill:#dcfce7}.svc{fill:#ede9fe}.io{fill:#fef3c7}.line{stroke:#475569;stroke-width:3;marker-end:url(#a)}</style>
<defs><marker id="a" markerWidth="10" markerHeight="10" refX="8" refY="3" orient="auto"><path d="M0,0 L0,6 L9,3 z" fill="#475569"/></marker></defs>
<text x="60" y="60" class="title">太空服务器（A100）矢量架构图</text>
<rect x="90" y="110" width="1220" height="680" class="box" fill="#ffffff"/>
<rect x="170" y="220" width="260" height="150" class="box srv"/><text x="250" y="275" class="h">A机</text><text x="195" y="315" class="t">飞腾D2000 + GPU</text><text x="195" y="345" class="t">业务计算 / 服务承载</text>
<rect x="500" y="220" width="260" height="150" class="box srv"/><text x="580" y="275" class="h">B机</text><text x="525" y="315" class="t">飞腾D2000 + GPU</text><text x="525" y="345" class="t">协同 / 冗余 / 并行处理</text>
<rect x="850" y="220" width="280" height="150" class="box io"/><text x="930" y="275" class="h">接口与供电</text><text x="890" y="315" class="t">30V / 5A，串口，2个网口</text><text x="900" y="345" class="t">IDS / 上位机接口设计</text>
<rect x="250" y="500" width="330" height="150" class="box svc"/><text x="330" y="555" class="h">软件与服务层</text><text x="285" y="595" class="t">PaaS / SaaS / Docker / SSH</text>
<rect x="720" y="500" width="330" height="150" class="box net"/><text x="790" y="555" class="h">组网与平台层</text><text x="760" y="595" class="t">星间链路 / 地面站 / 云原生卫星</text>
<line x1="430" y1="295" x2="500" y2="295" class="line"/><line x1="760" y1="295" x2="850" y2="295" class="line"/>
<line x1="300" y1="370" x2="360" y2="500" class="line"/><line x1="630" y1="370" x2="470" y2="500" class="line"/><line x1="990" y1="370" x2="900" y2="500" class="line"/>
<text x="180" y="720" class="t">说明：太空服务器采用双机结构，面向在轨算力、云原生卫星和边缘智能应用承载。</text>
</svg>